PathFileType	4	(X/Y/Z)	Patient4_TMGait_0pt8_01_right_38.trc.trc
DataRate	CameraRate	NumFrames	NumMarkers	Units	OrigDataRate	OrigDataStartFrame	OrigNumFrames
86.956521739130	86.956521739130	4	33	mm	86.956521739130	1	       141
Frame#	Time	Sacral			L.Shoulder			Chest			R.Shoulder			Neck			R.ASIS			L.ASIS			R.Thigh.Superior			R.Thigh.Lateral			R.Thigh.Inferior			R.Patella			L.Thigh.Superior			L.Thigh.Lateral			L.Thigh.Inferior			L.Patella			L.Shank.Superior			L.Shank.Lateral			L.Shank.Inferior			R.Shank.Superior			R.Shank.Lateral			R.Shank.Inferior			R.Heel			R.Midfoot.Superior			R.Midfoot.Lateral			R.Toe			L.Heel			L.Midfoot.Lateral			L.Midfoot.Superior			L.Toe			L.Elbow			L.Wrist			R.Elbow			R.Wrist			
		X1	Y1	Z1	X2	Y2	Z2	X3	Y3	Z3	X4	Y4	Z4	X5	Y5	Z5	X6	Y6	Z6	X7	Y7	Z7	X8	Y8	Z8	X9	Y9	Z9	X10	Y10	Z10	X11	Y11	Z11	X12	Y12	Z12	X13	Y13	Z13	X14	Y14	Z14	X15	Y15	Z15	X16	Y16	Z16	X17	Y17	Z17	X18	Y18	Z18	X19	Y19	Z19	X20	Y20	Z20	X21	Y21	Z21	X22	Y22	Z22	X23	Y23	Z23	X24	Y24	Z24	X25	Y25	Z25	X26	Y26	Z26	X27	Y27	Z27	X28	Y28	Z28	X29	Y29	Z29	X30	Y30	Z30	X31	Y31	Z31	X32	Y32	Z32	X33	Y33	Z33	

1	42.610000000000	836.248853606922	1012.611015876358	412.159528131076	1030.207865316807	1432.671350441620	228.653790900480	1128.564333028425	1365.973301233406	393.850611391621	1042.434024954571	1446.025062064680	564.411548188990	1012.162285848176	1497.419991498248	383.932990644572	1059.210604551015	945.535689006536	532.058108680735	1052.726918856203	963.883539202511	259.381577186261	1147.317369355341	781.985301794210	506.254471621563	1110.529224054784	659.806532077303	580.773709750003	1205.851190145710	624.055915507270	506.126883940170	1225.088012428292	507.478231043741	528.752565601122	1096.556357998099	753.924745467322	283.412285496319	1004.096104116556	639.986099096573	226.355808749895	1089.867188944043	560.680131757878	286.362474831352	1089.171202056635	492.880176527413	296.260303038201	1065.148587220461	421.190353721538	289.791188156547	976.878302682908	302.821981252059	246.405774385747	1036.694806632796	195.405242242066	316.861326019210	1142.057168279851	435.843588110409	529.892314639878	1012.706155393790	410.267041096611	582.061832635408	988.822629111851	304.705817568118	530.713858499329	783.180559314222	264.089337194517	487.201505059369	942.957409191696	192.476295441919	542.255798643047	831.582989906222	203.520777828494	567.510956074980	994.720802434650	76.611140729880	578.474338798612	916.693995489382	38.179498772475	371.573181027839	984.666477312802	34.621903465075	285.602986501371	1068.253749331282	97.367047774133	306.499728536778	1194.947448396902	48.938306452626	270.241676202962	1039.563068464188	1082.944051857761	99.658488564264	1155.202193885984	847.776292184250	99.431036243498	1018.274419789606	1099.383860554724	680.900029537103	1236.726529808355	969.739220001122	632.288882260054	
2	42.621500000000	834.614689287890	1012.326789350017	410.492436052997	1030.971095531384	1433.109058827947	228.571556887675	1127.823113824903	1365.768394641859	394.304549655102	1040.599400752069	1445.279944064727	564.386280311441	1012.199138682629	1497.460594840399	383.872294452332	1057.817343492796	946.444278911468	531.448289577068	1051.973068281337	964.247503697482	258.352281473493	1148.489818401783	786.761168531235	504.813520588708	1115.498369441675	664.190603054393	580.207118490212	1211.040261631522	630.484829181070	505.156512135877	1233.885836116355	515.037243345028	528.034977347437	1093.776875329562	752.903572671187	283.093728790519	1000.017733052148	639.809894095201	225.742771269075	1084.216459973452	559.637619338096	286.346976674435	1082.498841724056	491.927718741651	296.536200596273	1058.301737042006	420.517421870662	289.874142822302	969.462808811968	302.705582637487	246.193698050073	1028.046489527980	194.974141507162	317.028437490616	1153.801607432825	440.609445846014	529.845915479728	1026.424006041713	409.510591065261	583.030168563279	1006.867614936142	302.898755410041	531.923933689535	803.413134594197	253.562409880221	490.271210314539	966.213144456831	188.853764272959	544.244173916160	854.804374729817	194.949991300459	569.977825524369	1022.760872937257	74.890728267153	579.210790230085	906.926491263287	38.152036480975	371.597554194450	974.947503262766	34.631767412640	285.609744317061	1058.601937248021	97.221452659377	306.649805259102	1185.307136350291	48.743092342767	270.204938452923	1049.602329712705	1086.065537390255	96.076057909455	1177.430891203647	858.249303377740	96.153315366086	1008.039627543985	1098.927262025761	680.399327550437	1211.222646525103	949.065434667038	640.639704317049	
3	42.633000000000	833.025581179387	1012.047302374628	408.866419663442	1031.736347018607	1433.542746224080	228.509608686766	1127.105945408593	1365.558948426948	394.766123906865	1038.799266623010	1444.527474153142	564.381322398071	1012.243466126629	1497.490079781147	383.833247999280	1056.433178380102	947.290225476736	530.855932148757	1051.220420258638	964.569076198111	257.362083999541	1149.593143061859	791.407236001308	503.416824097476	1120.290181841448	668.455454728878	579.644036150868	1216.035925886012	636.735284420533	504.209434086773	1242.375962408350	522.437918161027	527.360994378537	1091.020928459750	751.887046281145	282.814122630181	996.002769589657	639.624303092726	225.154517900409	1078.649468650735	558.599832779656	286.343385011925	1075.937638028412	490.986559073154	296.813031321562	1051.555997181484	419.840676853045	289.968240350685	962.152539641543	302.584208212457	245.990245218836	1019.506610876929	194.539694211560	317.199181750944	1165.280157484008	445.231559768221	529.832276291588	1039.923367098498	408.567865489692	584.013997213399	1024.776436422737	300.927950529022	533.178497141490	823.589691395639	242.785581531650	493.354379583283	989.386379259350	185.052288004494	546.257767748080	877.967976884653	186.204897573335	572.502234819753	1050.754717443162	73.092913427895	580.076298041007	897.282946742363	38.122527094152	371.619017657816	965.347573606146	34.639832139244	285.617232616023	1049.070357581609	97.081822305774	306.798970198478	1175.783413074602	48.553581873421	270.173330307279	1059.383046883806	1089.178476247373	92.574124647631	1199.263942050924	868.783378422863	92.996344601096	998.083327318125	1098.437104012718	679.868135355367	1185.705760367423	928.957857012168	648.896084670345	
4	42.644500000000	831.539731510433	1011.768741054850	407.313626598142	1032.514813142302	1433.963947023738	228.498459148842	1126.445334790815	1365.330026563595	395.250100257254	1037.078990976395	1443.749056666248	564.424884887321	1012.310381547078	1497.488484762053	383.846946489200	1055.083386261582	948.005360523254	530.298960056601	1050.492328698463	964.807820910388	256.444593800439	1150.539561454661	795.729465240893	502.117645051938	1124.670228880036	672.422410540568	579.105443470201	1220.581403900230	642.546137369047	503.322152606319	1250.190879357582	529.479722438417	526.775037182592	1088.292501596659	750.861424468863	282.602633893845	992.063489204319	639.420806491050	224.610856217492	1073.179819154772	557.561482877656	286.358697484372	1069.515141742724	490.059776776099	297.083929202377	1044.924203023867	419.155635641233	290.077582254417	954.955089448199	302.457646848523	245.798908414204	1011.084838040658	194.099140504883	317.371763365114	1176.228396156999	449.553426552775	529.895010000465	1053.097767631119	407.203466902916	585.058548938102	1042.590704931475	298.641604760587	534.534173505313	844.008395403880	231.442056116163	496.483502287777	1012.680169463687	180.961435405847	548.336331198279	901.370866072602	177.099160624396	575.142326822150	1078.967507042949	71.309463403101	581.188343645382	887.782688736450	38.092616977640	371.635416797865	955.881969080362	34.645355643842	285.626238436441	1039.676502016700	96.951536480396	306.945114722181	1166.390212740578	48.369051932659	270.151025697948	1068.703945665066	1092.288322040534	89.223311511557	1220.409709924979	879.588606401375	90.090043251255	988.576513048177	1097.918026365338	679.294999043810	1160.006501880474	910.017958047032	656.986646418828	
